# xmcd CD database file
#
# Track frame offsets:
#	150
#	10049
#	26297
#	35453
#	45754
#	69921
#	80921
#	92689
#	105571
#	116094
#	126133
#	139326
#	151255
#	181748
#	205073
#	224793
#	237648
#	259780
#
# Disc length: 3599 seconds
#
# Revision: 1
# Processed by: cddbd v1.5.2PL0 Copyright (c) Steve Scherf et al.
# Submitted via: CDex 1.70beta2
#
DISCID=f10e0d12
DTITLE=DJ Maestro - Oger.Volume.1
DYEAR=2007
DGENRE=Jazz
TTITLE0=Julie.London_Go.Slow
TTITLE1=Molly.Johnson_Miss.Celie's.Blues
TTITLE2=Bobby.Troup_Snootie.Little.Cutie
TTITLE3=Les.Baxter_Whatever.Lola.Wants
TTITLE4=Billy.May_A.Man.And.A.Woman./.Live.For.Life
TTITLE5=Cy.Coleman_Pussy.Cat
TTITLE6=Billy.May.With.The.Time-Life.Orchestra_The.Book.Of.Love
TTITLE7=Vikki.Carr.The Silencers
TTITLE8=Wives.And.Lovers_Vic.Damone
TTITLE9=Hollywood.Studio.Symphony.Orchestra_The.Pink.Panther.Theme
TTITLE10=Joe.Williams.&.Thad.Jones.With.Mel.Lewis.Orchestra_Hallelujah.I.Love.Her.So
TTITLE11=Dean.Martin_Sway.(Quien.Sera)
TTITLE12=Herbie.Hancock_Watermelon.Man
TTITLE13=Tania.Maria_Maguerita
TTITLE14=Nicole.Conte_Aphrodite's.Dream
TTITLE15=Eliane.Elias_Ela.E.Carioca
TTITLE16=Cannonball.Adderley.&.The.Bossa.Rio.Sextet_Groovy.Samba
TTITLE17=Marcos.Valle.&.Patricia.Aivi_Os.Grilos.(Crickets.Sing.For.Ana.Maria)
EXTD=YEAR: 2007
EXTT0=
EXTT1=
EXTT2=
EXTT3=
EXTT4=
EXTT5=
EXTT6=
EXTT7=
EXTT8=
EXTT9=
EXTT10=
EXTT11=
EXTT12=
EXTT13=
EXTT14=
EXTT15=
EXTT16=
EXTT17=
PLAYORDER=
